<svg width="675" height="465" xmlns="http://www.w3.org/2000/svg"><defs><clipPath id="a"><path d="M1600 0v6060H0V0h1600z"/></clipPath><clipPath id="b"><path d="M244.482 0C394.482 0 600 154.16 600 269.661c0 115.502-205.518 192.347-355.518 192.347C94.482 462.008 0 385.163 0 269.661 0 154.16 94.482 0 244.482 0z"/></clipPath><clipPath id="c"><path d="M180.427 0c11.464-.01 22.93.076 34.391.345 9.64.227 14.62 4.867 15.983 14.376 2.075 14.471 2.137 14.905-11.244 14.918h-103.94v-.4c-36.25 0-72.504-.091-108.755.107-4.961.027-7.26-1.272-6.806-6.503.241-2.783-.061-5.612.133-8.403C.777 6 6.123.784 14.52.42 18.214.26 21.915.242 25.613.235 77.217.143 128.823.042 180.427.001zm29.7 7.41l-.28.006c-3.852.124-6.989 3.319-6.57 7.144.478 4.359 3.102 6.489 6.555 6.611 4.696-.137 7.56-3.15 7.125-7.178-.445-4.126-2.59-6.504-6.557-6.581l-.274-.002zm-29.117 6.4c0 4.204 2.242 7.122 6.698 7.352 4.01.206 7.192-2.941 7.06-6.914-.151-4.535-2.646-6.739-7.004-6.834-4.331-.122-6.753 2.238-6.754 6.396z"/></clipPath><clipPath id="d"><path d="M71.56 0c3.252-.018 8.889 6.882 8.889 16.812 0 9.93-5.578 14.945-12.345 14.945l-3.927-.001c-5.356-.21-12.018-.352-18.838-.448l-1.463-.02-2.199-.027-1.465-.017c-9.51-.104-18.77-.129-24.68-.133H10.607l-.23.001-.738.001H9.1C2.831 30.921 0 23.606 0 15.878S3.112.095 9.484.082C14.088.073 18.492.07 22.778.07h6.351l8.302.002h6.182C52.55.07 61.584.056 71.56 0zM23.091 7.587c-.953 0-2.057.283-3.311.847-1.254.565-2.277 1.236-3.069 2.013-.25.206-.458.58-.627 1.122a5.103 5.103 0 00-.253 1.507c0 .462.414 1.115 1.243 1.958a111.27 111.27 0 002.486 2.453c.829.792 1.243 1.357 1.243 1.694 0 .338-.381.756-1.144 1.254-.763.499-1.445.748-2.046.748-.601 0-1.14-.176-1.617-.528a15.272 15.272 0 01-1.287-1.056c-.381-.352-.748-.528-1.1-.528-.455 0-.682.404-.682 1.21 0 .807.466 1.588 1.397 2.343.931.756 2.16 1.133 3.685 1.133s2.882-.447 4.07-1.342c1.188-.894 1.782-1.965 1.782-3.212 0-.718-.257-1.463-.77-2.233s-1.074-1.408-1.683-1.914-1.17-.99-1.683-1.452c-.513-.462-.77-.78-.77-.957 0-.381.748-.85 2.244-1.408.645-.249 1.28-.44 1.903-.572.623-.132 1.1-.26 1.43-.385.33-.124.495-.29.495-.495 0-.513-.183-1.008-.55-1.485-.367-.476-.829-.715-1.386-.715zm27.586-.044c-.22 0-.36.15-.418.451-.059.301-.183 1.133-.374 2.497-.484 3.432-1.012 5.999-1.584 7.7-.44-.997-1.034-2.647-1.782-4.95-.748-2.302-1.265-3.663-1.551-4.08a4.527 4.527 0 00-1.012-1.068c-.389-.293-.708-.44-.957-.44-.293 0-.462.279-.506.836-.073.939-.532 3.256-1.375 6.952s-1.265 5.739-1.265 6.127c0 .389.235.851.704 1.386.47.536.85.803 1.144.803.205 0 .425-.359.66-1.078.132-.381.253-.762.363-1.144.11-.381.238-.898.385-1.55l.374-1.673c.103-.462.238-1.096.407-1.903.169-.806.304-1.43.407-1.87.69 1.57 1.423 3.55 2.2 5.94.337 1.042.565 1.727.682 2.057.117.33.352.616.704.858s.638.363.858.363c.543 0 1.151-1.041 1.826-3.124a53.696 53.696 0 001.661-6.545c.433-2.28.649-3.883.649-4.807 0-.278-.26-.638-.781-1.078-.52-.44-.994-.66-1.419-.66zm5.774.066c-.293 0-.44.173-.44.517 0 .345.176.763.528 1.254.352.492.792.913 1.32 1.265-.19 1.027-.686 2.915-1.485 5.665-.8 2.75-1.199 4.426-1.199 5.027 0 .308.275.789.825 1.441.55.653.95.98 1.199.98 1.115 0 2.545-.448 4.29-1.343 1.745-.894 3.282-1.954 4.609-3.179 1.327-1.224 1.991-2.247 1.991-3.069 0-1.1-.392-2.185-1.177-3.256a11.158 11.158 0 00-2.926-2.75 17.087 17.087 0 00-3.784-1.848c-1.357-.469-2.607-.704-3.751-.704zm-22.174.418c-1.907 0-3.227.055-3.96.165-.733.11-1.18.37-1.342.781-.059.118-.088.279-.088.484 0 .132.007.22.022.264-.044 1.394-.444 3.462-1.199 6.204-.755 2.743-1.133 4.455-1.133 5.137 0 .682.271 1.276.814 1.782.543.506 1.151.76 1.826.76 1.13 0 2.28-.147 3.454-.44 1.173-.294 2.149-.69 2.926-1.189.777-.498 1.166-1.012 1.166-1.54 0-.396-.14-.594-.418-.594-.088 0-.433.081-1.034.242-1.775.44-3.498.66-5.17.66-.25 0-.374-.124-.374-.374 0-.469.286-1.591.858-3.366a15.126 15.126 0 003.894-.66c1.217-.381 1.826-.894 1.826-1.54a.469.469 0 00-.187-.374c-.125-.102-.293-.154-.506-.154-.213 0-.766.04-1.661.121-.895.081-1.73.121-2.508.121h-.132c.352-1.305.528-2.456.528-3.454 1.115-.308 2.383-.542 3.806-.704.924-.102 1.65-.212 2.178-.33.777-.176 1.166-.491 1.166-.946 0-.704-1.584-1.056-4.752-1.056zm26.332 3.74a11.702 11.702 0 013.014 1.925c.865.77 1.298 1.39 1.298 1.86 0 .6-.763 1.477-2.288 2.628-1.525 1.152-3.007 1.97-4.444 2.453.059-.146.15-.436.275-.869.125-.432.216-.744.275-.935 1.159-3.608 1.782-5.962 1.87-7.062z"/></clipPath><clipPath id="e"><path d="M54.887.001h2.88l.478.001h2.375l.943.001h1.872l.465.001h2.302l2.708.002h1.769l.872.001h1.716l.424.001 2.08.001h.408l1.998.001h2.301l.372.001h1.812l.7.001h2.653l.624.001h3.888v.171h2.817l12.419-.001h.5l10.293-.001h12.064l1.252-.001h44.976l.513.001h3.464l.945.001h2.706l.858.001h1.643l.785.001h1.493l.533.001h1.02l.485.001h1.217l.426.001.8.001h.374c6.885.007 8.901 1.97 8.953 8.68.016 2.054.028 6.078.032 10.371v1.177l.001.295v3.114l-.001.91a927.606 927.606 0 01-.04 9.001c-.068 5.52-2.286 8.006-7.752 8.77-1.215.169-2.46.173-3.691.178-30.495.13-145.673.274-176.168.36C.64 43.082-.015 42.767 0 30.602l.002-.767v-.395C.015 26.267.075 12.509.18 9.339.402 2.692 2.967.06 9.58.035 14.1.017 21.033.007 29.05.003h1.425l.721-.001L32.995 0h21.892zM96.29 27.12c-.028 2.173 1.557 2.148 3.217 1.97l.322-.037c.966-.11 1.924-.227 2.573.048.925 0 1.464.079 1.972-.013.43-.08.938-.059 1.46-.024l.313.023.152.01.303.02c1.303.076 2.492-.012 2.55-1.586.096-2.643-2.915-2.341-4.959-2.53-.348-.031-.744-.177-1.038-.064-.65.25-1.466.224-2.304.142l-.337-.035a53.433 53.433 0 01-.168-.02l-.504-.057c-1.839-.203-3.52-.259-3.552 2.153zm17.519-.479c.366.45.626 1.11 1.017 1.2 5.807 1.307 11.66 1.08 17.515.808l1.597-.075c1.33-.06 2.66-.117 3.99-.151.847-.023 1.869-.534 1.773-1.594-.142-1.572-1.45-1.751-2.723-1.766-5.459-.066-10.919-.185-16.378-.143-.422.003-.854-.018-1.289-.04l-.435-.021c-1.818-.085-3.655-.052-5.067 1.782zm-101.661-.789c-.391.089-.651.75-1.018 1.2 1.356 1.76 3.103 1.86 4.849 1.791l.436-.02c.509-.025 1.014-.054 1.507-.05 5.459.042 10.919-.078 16.378-.143 1.272-.015 2.58-.194 2.722-1.766.097-1.06-.925-1.572-1.773-1.594-7.71-.2-15.447-1.141-23.101.582zm53.704-.453v.153c-6.676 0-13.35-.013-20.026.01-1.53.004-3.861-.454-4.006 1.438-.168 2.198 2.287 1.68 3.684 1.687 14.058.074 28.115.062 42.173.03 1.29-.004 3.313.428 3.187-1.628-.106-1.72-2.003-1.674-3.4-1.678-7.204-.027-14.408-.012-21.612-.012zm-44.6-11.032l-.321.036c-.966.11-1.924.228-2.573-.048-.925 0-1.464-.078-1.972.014-.43.078-.938.058-1.46.023l-.627-.044c-1.357-.089-2.631-.053-2.69 1.577-.077 2.114 1.834 2.344 3.648 2.448l.339.018c.336.018.664.036.971.064.348.032.744.178 1.038.064.738-.282 1.686-.212 2.641-.107l.337.039c1.964.225 3.854.443 3.887-2.114.028-2.174-1.557-2.149-3.217-1.97zm68.965.054l-1.597.074c-1.596.075-3.193.148-4.788.19-.848.021-1.87.533-1.773 1.593.142 1.572 1.45 1.751 2.722 1.766 5.46.066 10.92.185 16.378.143.352-.003.71.011 1.072.029l.435.022c1.888.094 3.816.135 5.285-1.772-.366-.45-.627-1.11-1.017-1.2-5.543-1.248-11.13-1.098-16.717-.845zm94.174-.148l-.435.021c-.435.023-.867.044-1.29.04-5.458-.042-7.742.078-13.201.143-1.273.015-2.581.194-2.723 1.766-.096 1.06.925 1.572 1.773 1.594 7.71.2 12.272 1.141 19.926-.582.39-.089.651-.75 1.017-1.2-1.412-1.833-3.249-1.866-5.067-1.782zm-109.417.572c-14.057-.033-28.115-.044-42.172.03-.28.001-.601-.018-.936-.033l-.29-.01c-1.26-.037-2.583.097-2.459 1.73.145 1.892 2.476 1.433 4.007 1.439 6.675.022 13.35.01 20.025.01v.152c7.205 0 14.409.014 21.613-.012h.296c1.354-.006 3.005-.077 3.103-1.678.126-2.057-1.897-1.625-3.187-1.628zm37.765 1.628c.099 1.6 1.75 1.672 3.104 1.677l.295.001c7.205.026 14.409.012 21.613.012v-.153c6.676 0 13.35.013 20.026-.01 1.53-.005 3.861.454 4.006-1.438.168-2.199-2.287-1.68-3.684-1.687-14.058-.074-28.115-.063-42.173-.03-1.29.003-3.313-.429-3.187 1.628z"/></clipPath><clipPath id="f"><path d="M230.564 0c1.5-.022 1.338 1.48 1.433 2.55.432 4.827.72 20.248.831 35.67l.012 1.85c.024 3.697.036 7.37.038 10.872v1.736c-.004 9.75-.096 17.933-.287 21.218a384.883 384.883 0 00-.22 4.343l-.102 2.173c-.246 5.072-.569 10.143-1.588 15.149-2.07 10.173-6.426 14.206-16.68 14.35-38.03.538-76.062.899-114.094 1.344-25.23.294-50.458.602-75.688.947-3.74.052-7.417-.277-11.015-1.26C6.667 109.155 2.34 104.852 1.48 98.2.368 89.574.015 70.757.001 51.727v-2.33C.012 30.365.346 11.53.581 2.866.607 1.995.808.997 1.964.665c2.185 1.415 1.281 3.678 1.3 5.584.063 6.304.101 21.96.132 38.18l.003 2.072c.032 17.633.055 35.487.087 42.328.004.745.027 1.49.08 2.233.988 13.877 4.923 17.961 18.66 17.88 21.842-.127 43.682-.348 65.522-.585l32.76-.36c5.46-.06 10.92-.117 16.381-.172 23.563-.238 47.127-.517 70.691-.672 16.704-.11 19.466-2.646 21.131-19.344.677-6.785.931-24.156.944-41.528v-2.084c-.006-16.66-.228-32.933-.507-39.452-.032-.741-.1-1.483-.12-2.225-.032-1.182.211-2.5 1.536-2.52z"/></clipPath><clipPath id="g"><path d="M18.82 10.5c1.072-.665 3.186.145 7.123 2.636 3.156 2.085 5.125 2.954 9.149 4.112 3.822 1.101 3.908 1.362.84 3.07-4.083 2.288-8.773 7.559-10.597 11.932-1.187 2.867-4.487 1.709-4.806-1.68-.231-2.288-.81-6.603-1.013-7.616-.087-.493-.261-.608-.608-.493-4.054 1.564-10.886.03-13.955-3.127-2.2-2.23.666-4.084 3.127-2.028 2.113 1.796 5.443 1.825 7.846 1.68l2.924-.174-.203-2.346c-.347-3.996-.29-5.676.174-5.965zM.003 2.914c-.116-3.562 4.372-4.286 4.72.26.202 2.607.52 5.909.984 7.704.608 2.375.347 2.81-1.824 2.81-3.446 0-3.648-4.084-3.88-10.774z"/></clipPath><clipPath id="h"><path d="M6.033 46.29c.612-1.003 7.228 1.005 13.512 3.524l.737.299c5.758 2.355 11.022 5.06 10.834 6.157-.311 1.694-2.757 1.145-13.164-3.113-9.83-4.028-12.631-5.63-11.92-6.866zm20.196-23.536c4.843-1.565 6.11-1.608 8.825-.26 3.62 1.826 2.806 2.434-6.562 5.217-16.97 4.956-19.73 5.565-21.903 4.522-5.34-2.522 5.295-4.783 19.64-9.479zM7.08 6.501C13.732-.515 14.547-.917 18.35.96c2.805 1.385 2.443 2.056-4.164 8.357C5.224 17.853 2.78 19.194.472 16.691-.796 15.306.2 13.74 7.079 6.5z"/></clipPath><clipPath id="i"><path d="M46.576 0C27.156 19.61 10.98 41.446.02 68.806-.951 53.93 32.408 5.35 46.576 0z"/></clipPath><clipPath id="j"><path d="M0 0c13.1 6.62 35.223 43.778 33.809 57.162C26.585 35.647 15.709 16.38 0 0z"/></clipPath><clipPath id="k"><path d="M0 0c10.572 22.27 24.148 42.252 44.459 57.162C23.379 42.826 7.094 24.852 0 0z"/></clipPath><clipPath id="l"><path d="M5.246 0C10.07 8.245 6.17 46.465 0 55.045 3.975 37.303 5.865 19.354 5.246 0z"/></clipPath><clipPath id="m"><path d="M2.443 0C5.823 5.883 4.087 29.938 0 37.05L2.443 0z"/></clipPath><clipPath id="n"><path d="M0 0c9.113 2.981 18.513 4.102 27.935 5.076l2.261.232c2.64.27 5.278.538 7.911.844C24.578 9.469 12.123 5.814 0 0z"/></clipPath><clipPath id="o"><path d="M40.225 19.054C28.04 10.117 15.309 2.605 0 .514c8.145-3.145 34.216 8.772 40.225 18.54z"/></clipPath><clipPath id="p"><path d="M29.64 0C17.163 5.84 7.844 15.285 0 26.464 1.778 16.014 19.348.235 29.64 0z"/></clipPath><clipPath id="q"><path d="M6.351 0C3.476 8.733 2.23 17.735 1.411 27.523-1.972 21.83 1.146 4.665 6.352 0z"/></clipPath><clipPath id="r"><path d="M29.64 0C20.535 5.634 10.417 6.646 0 6.287 9.963 4.567 19.856 2.537 29.64 0z"/></clipPath><clipPath id="s"><path d="M8.468 0C4.514 7.64 1.91 15.712 1.063 24.347-2.152 18.214 2.39 3.315 8.468 0z"/></clipPath><clipPath id="t"><path d="M0 0c5.673 7.733 14.098 11.56 23.288 15.692C15.135 17.226 3.105 9.05 0 0z"/></clipPath><clipPath id="u"><path d="M0 0c7.34 5.042 15.832 7.987 23.288 12.703C13.798 11.45 6.19 6.883 0 0z"/></clipPath><clipPath id="v"><path d="M16.937 0C14.224 9.22 7.787 15.253 0 20.113 6.178 13.889 11.989 7.333 16.937 0z"/></clipPath><clipPath id="w"><path d="M0 0c6.607.826 17.71 10.698 19.054 16.937C12.494 11.105 6.63 5.892 0 0z"/></clipPath><clipPath id="x"><path d="M0 0c4.892 1.217 9.856 1.639 14.814 2.017l2.124.161c2.477.19 4.95.396 7.408.712C15.754 5.627 7.69 3.946 0 0z"/></clipPath><clipPath id="y"><path d="M22.23 0C16.035 6.143 8.197 8.755 0 10.586 7.146 6.506 14.659 3.228 22.23 0z"/></clipPath><clipPath id="z"><path d="M2.16 0C5.424 4.327 4.93 16.41 0 24.347L2.16 0z"/></clipPath><clipPath id="A"><path d="M20.112 0C16.534 5.992 8.421 8.695 0 6.825 6.872 5.924 13.094 3.095 20.112 0z"/></clipPath><clipPath id="B"><path d="M6.351 0C5.91 7.236 3.725 13.929 0 20.113.905 12.998 2.56 6.15 6.351 0z"/></clipPath><clipPath id="C"><path d="M1.606 0c.773 8.573.57 15.911 4.745 22.23C.501 18.675-1.842 8.61 1.606 0z"/></clipPath><clipPath id="D"><path d="M21.17 3.176C13.29 2.224 6.624 1.352 0 3.059c5.226-4.034 14.894-4.162 21.17.117z"/></clipPath><clipPath id="E"><path d="M12.702 0C8.2 4.336 3.581 8.579 0 13.761 1.94 7.363 5.442 2.121 12.702 0z"/></clipPath><clipPath id="F"><path d="M11.644 0C9.996 6.1 5.644 9.941 0 12.703 3.911 8.493 7.685 4.17 11.644 0z"/></clipPath><clipPath id="G"><path d="M3.557 0C5.232 5.758 3.707 10.601 0 14.82 1.906 10.086 1.912 4.809 3.557 0z"/></clipPath><clipPath id="H"><path d="M.306 0a43652.9 43652.9 0 012.368 4.939l1.557 3.25 3.179 6.63C2.373 12.204-1.074 4.934.306 0z"/></clipPath><clipPath id="I"><path d="M0 0c3.72.468 6.299 2.575 8.774 4.829l.57.522.284.261.57.523c.476.433.956.862 1.446 1.275C6.838 6.267 3.354 3.227 0 0z"/></clipPath><clipPath id="J"><path d="M7.41 0L0 8.468C.175 3.478 1.553 1.628 7.41 0z"/></clipPath><clipPath id="K"><path d="M42.3 32.042a5.399 5.399 0 012.502 2.385 4.69 4.69 0 01.454 3.396 4.642 4.642 0 01-1.976 2.785 3.486 3.486 0 01-.971.523c-.216.1-.445.166-.68.196a26.256 26.256 0 013.238 6.346 152.619 152.619 0 015.018 17.857 61.52 61.52 0 00.939 3.892 77.211 77.211 0 001.198 3.892c.097.261.971 3.63.971 3.63a1.085 1.085 0 01-.388.85 1.03 1.03 0 01-1.716-.327l-.195-.457c-.194-.622-.647-2.29-.874-2.813l-.583-1.636-.323-.392-1.814-1.537a61.991 61.991 0 01-5.633-3.663 29.237 29.237 0 01-2.946-2.748c-.647.622-1.295 1.243-1.975 1.8-1.521 1.34-3.14 2.518-4.759 3.695l-4.986 3.467c-2.408 1.556-2.588 1.766-2.593 1.794a7.33 7.33 0 00.003 1.64.987.987 0 01-.218.668.963.963 0 01-1.286.198.98.98 0 01-.406-.572 23.09 23.09 0 012.331-10.63c2.176-5.3 4.64-10.476 7.382-15.501 1.586-3.14 2.946-5.462 3.237-6.182a35.743 35.743 0 011.91-3.27 5.892 5.892 0 01-2.557-2.715 4.52 4.52 0 01.388-3.86l1.23-1.536a6.206 6.206 0 011.393-1.047c.392-.23.818-.396 1.262-.49a5.325 5.325 0 013.422.362zM32.11 57.615c-1.845 3.009-3.625 6.28-5.082 9.55a56.493 56.493 0 00-1.716 4.088l4.37-4.284c1.91-1.57 3.724-3.27 5.73-4.906l.81-.589a16.21 16.21 0 00-1.197-1.406 10.179 10.179 0 00-1.878-1.57l-1.036-.883zm12.821.981l-1.78 1.472-1.878 1.668 6.281 5.625-.389-1.21c-.388-1.57-1.198-4.284-2.234-7.555zm6.664-56.738a38.666 38.666 0 0121.46 19.31 39.77 39.77 0 012.792 28.38 41.387 41.387 0 01-2.207 5.807 33.436 33.436 0 01-3.247 5.382 1.075 1.075 0 01-.7.476 1.071 1.071 0 01-.826-.182 1.105 1.105 0 01-.476-.72 1.113 1.113 0 01.184-.846 34.097 34.097 0 002.824-5.089 39.8 39.8 0 001.916-5.513 36.82 36.82 0 00-3.052-26.096 35.28 35.28 0 00-19.642-17.42 37.07 37.07 0 00-16.253-1.281 37.134 37.134 0 00-15.24 5.816A36.038 36.038 0 007.776 21.815a36.233 36.233 0 00-4.881 15.762A30.146 30.146 0 004.096 49.94a29.393 29.393 0 006.299 10.83.978.978 0 01.218 1.082.978.978 0 01-.218.32 1.004 1.004 0 01-1.396 0 32.647 32.647 0 01-7.046-11.417A33.32 33.32 0 01.07 37.348a39.087 39.087 0 014.88-17.266A38.881 38.881 0 0117.018 6.848 40.372 40.372 0 0133.743.413a40.304 40.304 0 0117.852 1.445zM39.46 44.369c-.2.495-.4 1.067-.506 1.376l-.048.14-.029.087c-.485.785-1.91 3.303-3.69 6.639-.583.949-1.198 2.028-1.846 3.107l.971.654c.76.346 1.486.762 2.17 1.243.877.616 1.71 1.293 2.492 2.028l2.655-1.766 2.623-1.636c-.55-1.504-1.101-3.237-1.684-4.775a56.817 56.817 0 00-2.784-6.54l-.324-.557zm9.43-32.108c6.854 2.424 12.48 7.374 15.687 13.804a27.538 27.538 0 011.813 20.253c-.298 1-.65 1.985-1.055 2.949-.428.94-.89 1.88-1.417 2.82-.14.257-.378.45-.662.535a1.138 1.138 0 01-.854-.082 1.138 1.138 0 01-.547-.67 1.117 1.117 0 01.086-.853c.453-.853.86-1.73 1.22-2.625.362-.907.625-1.815.889-2.722a24.962 24.962 0 00-2.274-18.179c-2.921-5.536-7.903-9.75-13.907-11.763a26.492 26.492 0 00-11.393-.814 26.33 26.33 0 00-10.654 4.055 25.198 25.198 0 00-8.15 8.055 24.703 24.703 0 00-3.68 10.772 20.57 20.57 0 003.558 13.869.992.992 0 01-.23 1.393 1.034 1.034 0 01-1.384-.226 23.178 23.178 0 01-4.45-15.36 27.098 27.098 0 013.454-12.305 27.62 27.62 0 018.74-9.439 29.632 29.632 0 0112.203-4.563c4.364-.6 8.81-.226 13.008 1.096zM39.817 35.31c-.939.556-2.525 1.668-2.104 2.649.809 1.7 2.104 1.7 2.169 1.7a.198.198 0 00.033-.009l.077-.027c.616-.233 3.53-1.555 2.124-3.626a2.006 2.006 0 00-1.037-.728 1.988 1.988 0 00-1.262.04zm5.08-13.14a16.962 16.962 0 017.276 6.174 17.991 17.991 0 013.191 9.194 1.117 1.117 0 01-.238.83 1.033 1.033 0 01-.751.386 1.071 1.071 0 01-.796-.256 1.117 1.117 0 01-.385-.763 15.36 15.36 0 00-3.19-7.618 13.494 13.494 0 00-6.383-4.498 13.35 13.35 0 00-7.467-.198 15.692 15.692 0 00-4.755 1.905 14.584 14.584 0 00-4.71 4.67 15.084 15.084 0 00-2.215 6.33.975.975 0 01-.326.668.917.917 0 01-.695.22.932.932 0 01-.362-.1.968.968 0 01-.483-.57 1.012 1.012 0 01-.048-.382 17.408 17.408 0 011.88-7.789 16.87 16.87 0 015.14-6.035 16.991 16.991 0 015.744-2.594c3.164-.818 6.49-.67 9.573.427z"/></clipPath><clipPath id="L"><path d="M16.582.132a5.325 5.325 0 013.422.363 5.399 5.399 0 012.503 2.385 4.69 4.69 0 01.453 3.396 4.642 4.642 0 01-1.975 2.785 3.486 3.486 0 01-.972.523c-.215.1-.444.166-.68.196a26.256 26.256 0 013.238 6.346 152.619 152.619 0 015.019 17.857 61.52 61.52 0 00.938 3.892 77.21 77.21 0 001.198 3.892c.097.261.972 3.63.972 3.63a1.085 1.085 0 01-.388.85 1.03 1.03 0 01-1.716-.327l-.195-.457c-.194-.622-.648-2.29-.874-2.813l-.583-1.636-.324-.392-1.813-1.537a61.991 61.991 0 01-5.633-3.663 29.237 29.237 0 01-2.946-2.748c-.648.622-1.295 1.243-1.975 1.8-1.522 1.34-3.14 2.518-4.76 3.695l-4.985 3.467c-1.957 1.264-2.443 1.64-2.558 1.752l-.021.02c-.013.015-.015.022-.014.025l-.027.328c-.03.436-.02.874.03 1.309a.987.987 0 01-.219.668.963.963 0 01-1.286.198.98.98 0 01-.405-.572 23.09 23.09 0 012.33-10.63c2.176-5.3 4.64-10.476 7.382-15.501 1.586-3.14 2.946-5.462 3.238-6.182a35.743 35.743 0 011.91-3.27 5.892 5.892 0 01-2.558-2.715 4.52 4.52 0 01.389-3.86l1.23-1.536A6.206 6.206 0 0115.319.623c.393-.23.819-.396 1.263-.49zM9.815 26.068c-1.845 3.009-3.626 6.28-5.083 9.55a56.493 56.493 0 00-1.716 4.088l4.371-4.284c1.91-1.57 3.723-3.27 5.73-4.906l.81-.589a16.21 16.21 0 00-1.198-1.406 10.179 10.179 0 00-1.878-1.57zm12.821.981l-1.78 1.472-1.879 1.668 6.281 5.625-.388-1.21c-.389-1.57-1.198-4.284-2.234-7.555zm-5.472-14.227c-.29.72-.582 1.603-.582 1.603-.486.785-1.91 3.303-3.691 6.639-.583.949-1.198 2.028-1.845 3.107l.97.654c.76.346 1.486.762 2.17 1.243.877.616 1.71 1.293 2.493 2.028l2.655-1.766 2.622-1.636c-.55-1.504-1.1-3.237-1.684-4.775a56.817 56.817 0 00-2.784-6.54zm1.619-9.1a1.988 1.988 0 00-1.262.04c-.94.557-2.526 1.669-2.105 2.65.81 1.7 2.105 1.7 2.17 1.7.064 0 3.787-1.373 2.233-3.662a2.006 2.006 0 00-1.036-.728z"/></clipPath><clipPath id="M"><path d="M76.31 0l16.28.013c10.99.015 17.71 9.067 14.683 19.651-1.521 5.325-2.969 10.665-4.446 15.997-5.22 18.14-12.81 43.478-18.025 61.625-3.48 12.06-6.939 24.119-10.434 36.17-2.574 8.878-7.663 12.052-16.657 9.895a2341.21 2341.21 0 01-45.54-11.384C2.7 129.497-1.68 121.84.587 112.331c1.17-4.925 2.479-9.814 3.729-14.725 3.064-11.02 7.4-25.63 10.464-36.657.9-3.202 2.254-8.054 3.632-12.988l.435-1.56.33-1.181c1.262-4.519 2.475-8.862 3.303-11.811 2.179-7.396 4.394-14.776 6.537-22.179C31.284 3.392 35.65.013 43.744.013l16.284-.01L76.311 0zm-7.452 2.91l-24.287.002c-8.124 0-11.093 2.288-13.257 10.01-2.136 7.628-4.358 15.227-6.545 22.84l-7.166 26.19c-2.8 10.322-6.8 24.212-9.623 34.6h.015l-.088.262c-1.58 5.804-3.18 11.601-4.745 17.413-1.25 4.635-.037 9.059 6.178 10.425 15.137 3.327 30.12 7.352 45.168 11.056 6.354 1.562 10.668-.806 12.518-7.09 3.554-12.052 6.969-24.14 10.442-36.214 4.644-16.192 10.457-35.996 15.1-52.188-.19.065.351-.887.16-.843.162-.21.396-2.027.593-2.223.044-.022.088-.036.132-.058.343-1.174.69-2.347 1.037-3.52l2.09-7.036c1.391-4.691 2.766-9.387 4.053-14.107 1.69-6.212-1.016-9.517-7.487-9.517L68.858 2.91zM28.566 121.474c2.784.588 5.553 1.313 8.292 2.131.89.265 2.155.717 1.698 2.217-.396 1.288-1.549 1.168-2.611 1.168-2.634-.741-5.276-1.432-7.888-2.25-.905-.29-2.095-.657-1.885-2.14.224-1.62 1.534-1.305 2.394-1.126zM46.77 14.806c11.408.926 22.89.911 34.341 1.363 7.54.291 11.202 5.202 9.37 12.467-.794 3.154-1.72 6.273-2.588 9.406-4.325 14.835-9.82 33.334-14.144 48.169-2.273 7.782-5.458 19.032-7.819 26.784-2.184 7.17-7.862 10.638-15.166 9.108-11.342-2.376-22.654-4.918-33.959-7.498-5.928-1.348-8.65-5.705-7.42-11.68.44-2.127 1.146-4.204 1.728-6.31 2.67-9.668 6.472-23.257 9.142-32.918 1.677-5.633 4.891-18.544 6.575-24.183 1.258-4.277 2.619-8.525 3.744-12.838 2.185-8.372 8.164-12.518 16.196-11.87zM33.435 25.772c-1.588 5.34-3.023 10.725-4.523 16.088-1.405 5.093-4.943 17.625-6.355 22.726-2.5 9.136-6.26 21.91-8.76 31.039-.662 2.696-1.522 5.37-1.927 8.102-.677 4.598 1.118 7.068 5.708 8.08a4833.009 4833.009 0 0033.59 7.25c6.083 1.297 10.033-.99 11.923-7.104 2.494-8.08 5.495-19.6 7.878-27.71 4.126-14.127 9.193-31.417 13.32-45.545 1.11-3.709 2.36-7.381 3.302-11.134 1.317-5.26-1.397-8.787-6.928-8.99-12.1-.452-24.206-.817-36.305-1.166-5.428-.16-9.253 2.754-10.923 8.364zM66.057 5.67c1.566.056 2.275.928 2.137 2.303-.213 2.143-1.599 3.334-3.728 3.366-1.484.024-2.128-1.167-1.892-2.462.343-1.831 1.517-3.023 3.483-3.207z"/></clipPath><clipPath id="N"><path d="M36.693.572c3.145-.281 7.25-1.284 10.229.301 1.659.883 1.863 3.143 1.925 4.842.146 4.065-.81 16.582-3.796 19.4-2.062 1.946-8.287.876-12.111.595-8.107-.596-17.494-.772-26.842-1.069l-1.692-.417C-.083 24.23.143 21.2.01 17.41-.106 14.165.87 6.363 3.182 4.4 4.44 3.33 6.55 3.312 8.048 3.194 16.756 2.507 28.236 1.33 36.693.572z"/></clipPath><clipPath id="O"><path d="M71.149 0l15.177.013c10.247.013 16.513 8.475 13.69 18.37-1.418 4.977-2.768 9.968-4.145 14.953-4.868 16.957-11.944 40.644-16.805 57.608-3.245 11.273-6.47 22.546-9.729 33.812-2.4 8.298-7.145 11.266-15.53 9.25a2178.121 2178.121 0 01-42.46-10.642c-8.829-2.31-12.912-9.467-10.799-18.356 1.09-4.605 2.311-9.175 3.477-13.766 2.857-10.301 6.9-23.958 9.756-34.267 1.766-6.302 5.413-19.435 7.179-25.744 2.031-6.914 4.097-13.813 6.095-20.733C29.168 3.17 33.238.013 40.785.013l15.183-.01L71.148 0zM64.2 2.72l-22.644.002c-7.575 0-10.343 2.14-12.36 9.358-1.991 7.13-4.064 14.234-6.102 21.351l-6.682 24.481c-2.61 9.65-6.34 22.635-8.971 32.346h.013l-.082.244C5.9 95.928 4.407 101.347 2.948 106.78c-1.166 4.333-.034 8.469 5.76 9.745 14.113 3.11 28.082 6.873 42.113 10.336 5.924 1.46 9.946-.754 11.671-6.628 3.314-11.266 6.497-22.566 9.736-33.853 4.329-15.137 9.749-33.65 14.078-48.786-.177.061.327-.829.15-.788.15-.197.368-1.895.552-2.078.041-.02.082-.034.123-.054 2.243-7.68 4.595-15.334 6.695-23.056 1.575-5.806-.948-8.896-6.981-8.896L64.2 2.72zM26.634 113.555a97.112 97.112 0 017.73 1.993c.83.247 2.01.67 1.584 2.072-.303.985-1.077 1.09-1.891 1.095h-.272l-.272-.003c-2.456-.693-4.919-1.339-7.354-2.104-.844-.27-1.953-.614-1.758-2 .21-1.515 1.43-1.22 2.233-1.053zm16.972-99.714c10.636.865 21.341.851 32.018 1.274 7.03.272 10.444 4.863 8.737 11.654-.74 2.949-1.605 5.864-2.414 8.793-4.032 13.867-9.155 31.161-13.187 45.029-2.12 7.274-5.088 17.79-7.29 25.037-2.036 6.703-7.33 9.945-14.14 8.514-10.574-2.22-21.121-4.597-31.661-7.008-5.528-1.26-8.065-5.333-6.92-10.919.412-1.988 1.07-3.93 1.612-5.898 2.49-9.038 6.034-21.741 8.524-30.773.74-2.494 1.803-6.515 2.882-10.616l.36-1.369c1.08-4.102 2.145-8.124 2.888-10.621 1.173-3.998 2.442-7.97 3.49-12.002 2.038-7.826 7.613-11.701 15.101-11.095zm-12.432 10.25c-1.482 4.993-2.819 10.027-4.218 15.04-1.31 4.761-4.608 16.476-5.925 21.244a1262.44 1262.44 0 01-3.559 12.669l-.7 2.456c-1.4 4.913-2.789 9.794-3.908 13.89-.617 2.52-1.42 5.02-1.797 7.575-.63 4.297 1.042 6.606 5.322 7.553a4495.87 4495.87 0 0031.318 6.777c5.671 1.213 9.354-.926 11.116-6.64 2.325-7.554 5.123-18.323 7.345-25.903 3.847-13.207 8.572-29.37 12.419-42.577 1.035-3.467 2.201-6.9 3.079-10.408 1.227-4.917-1.303-8.214-6.46-8.405-11.28-.422-22.568-.762-33.849-1.09-5.06-.15-8.627 2.575-10.183 7.82zM61.588 5.3c1.46.052 2.122.867 1.992 2.152-.197 2.004-1.49 3.117-3.475 3.147-1.384.023-1.984-1.091-1.764-2.302.32-1.712 1.414-2.825 3.247-2.997z"/></clipPath><clipPath id="P"><path d="M34.14.535c2.926-.263 6.745-1.201 9.517.281 1.544.826 1.734 2.938 1.79 4.526.137 3.8-.753 15.501-3.53 18.135-1.92 1.82-7.711.82-11.27.557-7.542-.557-16.275-.722-24.973-1L4.1 22.646c-4.177.005-3.967-2.827-4.092-6.37C-.098 13.241.81 5.948 2.961 4.112c1.17-.999 3.134-1.015 4.527-1.126C15.59 2.343 26.271 1.243 34.14.535z"/></clipPath><clipPath id="Q"><path d="M79.137 0L96.02.015c11.398.015 18.366 9.381 15.227 20.333-1.577 5.51-3.079 11.035-4.61 16.552-2.45 8.49-5.402 18.506-8.401 28.668l-.948 3.212c-3.32 11.248-6.64 22.497-9.344 31.885-3.61 12.478-7.196 24.956-10.82 37.426-2.67 9.186-7.948 12.47-17.275 10.238a2432.39 2432.39 0 01-47.227-11.779C2.801 133.994-1.741 126.071.61 116.231c1.213-5.096 2.57-10.155 3.867-15.236 1.53-5.49 3.365-11.842 5.212-18.226l.853-2.945c1.701-5.884 3.374-11.688 4.786-16.759.935-3.322 2.345-8.358 3.778-13.477l.43-1.537c1.432-5.119 2.842-10.157 3.777-13.482 2.26-7.652 4.558-15.29 6.78-22.95C32.442 3.51 36.97.015 45.364.015L62.252.003 79.137 0zm-7.729 3.01l-25.187.003c-8.424 0-11.503 2.368-13.748 10.358-2.214 7.893-4.52 15.756-6.786 23.633l-7.432 27.098c-2.904 10.682-7.052 25.054-9.979 35.803h.015l-.09.27c-1.639 6.006-3.3 12.005-4.922 18.018-1.297 4.796-.038 9.374 6.407 10.787 15.697 3.443 31.235 7.607 46.84 11.44 6.59 1.617 11.064-.834 12.983-7.336 3.685-12.47 7.227-24.978 10.829-37.471 4.815-16.755 10.843-37.246 15.658-54.001-.197.068.364-.917.167-.872.073-.095.16-.509.253-.96l.08-.39c.095-.452.192-.861.282-.95.045-.023.09-.038.136-.06 2.495-8.502 5.111-16.973 7.447-25.52 1.751-6.427-1.054-9.847-7.765-9.847L71.408 3.01zM29.624 125.693c2.887.608 5.758 1.358 8.599 2.205.923.274 2.235.741 1.761 2.294-.411 1.332-1.606 1.209-2.708 1.209-2.732-.768-5.471-1.482-8.18-2.33-.938-.3-2.172-.679-1.955-2.214.233-1.676 1.59-1.35 2.483-1.164zM48.502 15.32c7.099.575 14.224.8 21.354.988l4.754.124c3.17.083 6.338.174 9.505.298 7.819.302 11.617 5.383 9.718 12.9-.824 3.264-1.785 6.491-2.685 9.733-4.485 15.35-10.183 34.492-14.668 49.841-1.088 3.717-2.377 8.197-3.69 12.734l-.659 2.27c-1.317 4.535-2.629 9.008-3.759 12.71-2.265 7.419-8.154 11.008-15.728 9.424-11.761-2.457-23.493-5.089-35.216-7.757-6.148-1.395-8.97-5.904-7.696-12.086.457-2.201 1.19-4.35 1.792-6.529 2.769-10.004 6.712-24.065 9.481-34.062 1.74-5.827 5.072-19.187 6.82-25.022.185-.632.374-1.264.564-1.895l1.143-3.786c.761-2.525 1.508-5.053 2.175-7.603 2.265-8.663 8.466-12.953 16.795-12.282zM34.674 26.667c-1.648 5.526-3.135 11.098-4.691 16.646-1.457 5.27-5.126 18.238-6.59 23.515-2.594 9.454-6.491 22.67-9.085 32.117-.686 2.79-1.579 5.556-1.998 8.384-.702 4.757 1.16 7.313 5.919 8.36a5021.72 5021.72 0 0034.835 7.502c6.308 1.342 10.404-1.025 12.364-7.35 2.586-8.362 5.698-20.281 8.169-28.672 4.28-14.619 9.534-32.51 13.814-47.128 1.151-3.837 2.448-7.637 3.424-11.52 1.366-5.443-1.449-9.092-7.185-9.303-12.547-.467-25.102-.844-37.65-1.206-5.629-.166-9.595 2.85-11.326 8.655zm33.83-20.8c1.623.057 2.359.959 2.215 2.382-.22 2.217-1.658 3.45-3.865 3.483-1.54.025-2.208-1.208-1.962-2.548.355-1.895 1.573-3.127 3.611-3.318z"/></clipPath><clipPath id="R"><path d="M38.144.592c3.269-.291 7.536-1.33 10.633.312 1.725.913 1.937 3.252 2.001 5.01.152 4.206-.842 17.157-3.945 20.072-2.144 2.014-8.615.908-12.59.617-8.428-.617-18.186-.8-27.904-1.106l-1.758-.431c-4.667.005-4.433-3.13-4.572-7.051-.119-3.359.896-11.43 3.3-13.463 1.307-1.106 3.5-1.125 5.058-1.247 9.052-.711 20.985-1.929 29.777-2.713z"/></clipPath></defs><g clip-path="url(#a)" transform="translate(-825 -190)"><g clip-path="url(#b)" transform="translate(878 190)"><path fill="#F2F9FE" d="M0 0h600v462.008H0V0z"/></g><g clip-path="url(#c)" transform="translate(1073.625 335.848)"><path fill="#3E3671" d="M0 0h231.82v29.64H0V0z"/></g><g clip-path="url(#d)" transform="translate(1208.06 433.187)"><path fill="#39A1FE" d="M0 0h80.449v31.757H0V0z"/></g><g clip-path="url(#e)" transform="translate(1089.856 376.806)"><path fill="#38A0FE" d="M-.001 0h201.097v43.047H0V.001z"/></g><g clip-path="url(#f)" transform="translate(1072.566 369.722)"><path fill="#3E3671" d="M0 0h232.879v112.207H0V0z"/></g><g clip-path="url(#g)" transform="translate(1093.737 431.118)"><path fill="#3E3671" d="M0 0h38.107v33.874H0V0z"/></g><g clip-path="url(#h)" transform="translate(1288.509 416.25)"><path fill="#38A0FE" d="M0 0h37.049v57.162H0V0z"/></g><path d="M1097.374 554.76c-4.177 19.03-2.368 6.003-7.482 26.055-1.267 4.97-2.036 10.324-3.993 14.997-1.97 4.703-5.25 5.353-9.576 4.523-3.21-.616-19.674-5.628-24.77-7.138-2.453-.727-8.687-2.578-10.18-4.818-2.184-3.276-.13-9.333.555-11.992.384-1.49-.27 1.975 1.447-5.137.056-.234-11.713-11.167-11.518-11.443.207-.292 15.555-4.09 15.7-4.626 5.484-20.265 7-22.494 9.795-31.515M1057.814 521.785c.586-3.444 7.712-1.612 10.166-.834 5.245 1.662 15.35 4.033 22.723 6.53M1208.574 552.062c-2.015 2.595-14.233 15.058-17.972 18.934-1.8 1.866-6.379 6.607-9.304 6.915-4.276.45-9.55-4.178-11.958-6.017-1.35-1.03 1.893 1.15-4.599-3.662-.213-.158-16.424 5.368-16.62 5.066-.208-.32 2.566-15.835 2.083-16.212-18.242-14.245-19.854-16.63-27.821-23.288M1120.669 532.518c-3.25-2.11 1.696-7.66 3.547-9.503 2.616-2.602 6.462-6.965 10.424-11.202" stroke="#3E3671" stroke-width="1.816" fill="none" stroke-linecap="round" stroke-linejoin="round"/><g clip-path="url(#i)" transform="matrix(1 0 0 -1 949.776 575.082)"><path fill="#3FA3FE" d="M0 0h46.576v68.806H0V0z"/></g><g clip-path="url(#j)" transform="matrix(1 0 0 -1 1187.947 610.015)"><path fill="#41A5FE" d="M0 0h33.873v57.162H0V0z"/></g><g clip-path="url(#k)" transform="matrix(1 0 0 -1 963.537 335.848)"><path fill="#41A5FE" d="M0 0h44.459v57.162H0V0z"/></g><g clip-path="url(#l)" transform="matrix(1 0 0 -1 1381.66 468.168)"><path fill="#43A6FE" d="M0 0h7.41v55.045H0V0z"/></g><g clip-path="url(#m)" transform="matrix(1 0 0 -1 1252.518 532.74)"><path fill="#3FA3FE" d="M0 0h4.234v37.05H0V0z"/></g><g clip-path="url(#n)" transform="matrix(1 0 0 -1 1122.318 259.631)"><path fill="#51ACFE" d="M0 0h38.107v7.41H0V0z"/></g><g clip-path="url(#o)" transform="matrix(1 0 0 -1 1139.254 614.249)"><path fill="#4CAAFE" d="M0 0h40.225v19.054H0V0z"/></g><g clip-path="url(#p)" transform="matrix(1 0 0 -1 1000.586 570.848)"><path fill="#44A7FE" d="M0 0h29.64v26.464H0V0z"/></g><g clip-path="url(#q)" transform="matrix(1 0 0 -1 969.888 473.46)"><path fill="#49A9FE" d="M0 0h6.351v27.523H0V0z"/></g><g clip-path="url(#r)" transform="matrix(1 0 0 -1 1228.172 292.447)"><path fill="#50ACFE" d="M0 0h29.64v6.351H0V0z"/></g><g clip-path="url(#s)" transform="matrix(1 0 0 -1 982.59 474.519)"><path fill="#4AAAFE" d="M0 0h8.468v24.347H0V0z"/></g><g clip-path="url(#t)" transform="matrix(1 0 0 -1 1009.054 306.208)"><path fill="#41A5FE" d="M0 0h23.288v15.878H0V0z"/></g><g clip-path="url(#u)" transform="matrix(1 0 0 -1 1030.225 319.97)"><path fill="#46A7FE" d="M0 0h23.288v12.703H0V0z"/></g><g clip-path="url(#v)" transform="matrix(1 0 0 -1 1308.62 328.438)"><path fill="#4EABFE" d="M0 0h16.937v20.113H0V0z"/></g><g clip-path="url(#w)" transform="matrix(1 0 0 -1 1112.791 504.159)"><path fill="#49A8FE" d="M0 0h19.054v16.937H0V0z"/></g><g clip-path="url(#x)" transform="matrix(1 0 0 -1 1137.137 273.393)"><path fill="#44A6FE" d="M0 0h24.346v4.234H0V0z"/></g><g clip-path="url(#y)" transform="matrix(1 0 0 -1 1249.343 265.983)"><path fill="#46A7FE" d="M0 0h22.23v10.586H0V0z"/></g><g clip-path="url(#z)" transform="matrix(1 0 0 -1 1368.958 457.582)"><path fill="#61B3FE" d="M0 0h4.234v24.347H0V0z"/></g><g clip-path="url(#A)" transform="matrix(1 0 0 -1 1222.88 269.158)"><path fill="#4DAAFE" d="M0 0h20.112v7.41H0V0z"/></g><g clip-path="url(#B)" transform="matrix(1 0 0 -1 1352.02 398.303)"><path fill="#51ACFE" d="M0 0h6.351v20.113H0V0z"/></g><g clip-path="url(#C)" transform="matrix(1 0 0 -1 974.122 386.658)"><path fill="#49A9FE" d="M0 0h6.351v22.23H0V0z"/></g><g clip-path="url(#D)" transform="matrix(1 0 0 -1 1097.971 598.37)"><path fill="#3FA3FE" d="M0 0h21.17v3.176H0V0z"/></g><g clip-path="url(#E)" transform="matrix(1 0 0 -1 1010.113 546.501)"><path fill="#4DABFE" d="M0 0h12.702v13.761H0V0z"/></g><g clip-path="url(#F)" transform="matrix(1 0 0 -1 1305.445 337.965)"><path fill="#4FABFE" d="M0 0h11.644v12.703H0V0z"/></g><g clip-path="url(#G)" transform="matrix(1 0 0 -1 1364.723 396.186)"><path fill="#4CAAFE" d="M0 0h4.234v14.82H0V0z"/></g><g clip-path="url(#H)" transform="matrix(1 0 0 -1 993.176 382.424)"><path fill="#55AEFE" d="M0 0h7.41v14.82H0V0z"/></g><g clip-path="url(#I)" transform="matrix(1 0 0 -1 1047.162 327.38)"><path fill="#55AEFE" d="M0 0h11.644v7.41H0V0z"/></g><g clip-path="url(#J)" transform="matrix(1 0 0 -1 1032.342 524.271)"><path fill="#44A7FE" d="M0 0h7.41v8.468H0V0z"/></g><path d="M1201.267 286.639c-.06 2.54-5.283 1.915-7.097 1.594-5.374-.95-17.49-1.97-21.89-3.918-4.724-2.09-2.686-12.882-2.356-17.582.993-14.126 1.055-4.558 2.605-19.513.384-3.705.376-7.64 1.278-11.2.908-3.583 3.158-4.372 6.3-4.196 2.33.13 14.479 2.134 18.235 2.725 1.808.284 6.403 1.01 7.688 2.479 1.88 2.148 1.052 6.715.842 8.698-.118 1.112-.013-1.45-.494 3.845-.016.174 9.424 6.905 9.315 7.123-.116.23-10.569 4.468-10.616 4.87-1.79 15.143-2.63 16.898-3.677 23.673" stroke="#3E3671" stroke-width="1.816" fill="none" stroke-linecap="round" stroke-linejoin="round"/><g clip-path="url(#K)" transform="rotate(-25 1082.767 -2197.955)"><path fill="#38A0FE" d="M0 0h77.273v78.124H0V0z"/></g><g clip-path="url(#L)" transform="rotate(-25 1142.77 -2264.013)"><path fill="#3E3671" d="M0 0h30.698v46.577H0V0z"/></g><g><path d="M1021.775 402.393c3.208-.183 2.797 6.225 2.523 8.46-.813 6.626-1.226 21.447-3.366 26.99-2.297 5.95-16.055 4.566-22.007 4.64-17.89.223-5.827-.82-24.802-1.191-4.701-.092-9.665.316-14.22-.42-4.584-.74-5.742-3.394-5.746-7.229-.004-2.845 1.65-17.806 2.124-22.428.228-2.225.812-7.881 2.573-9.591 2.574-2.501 8.394-1.958 10.912-1.902 1.41.03-1.829.162 4.884.21.22.002 8.032-12.147 8.314-12.036.3.118 6.397 12.388 6.907 12.405 19.23.642 21.505 1.486 30.127 2.073" stroke="#3E3671" stroke-width="1.816" fill="none" stroke-linecap="round" stroke-linejoin="round"/></g><g><path d="M1020.774 468.482c2.794-1.737 5.73 4.316 6.637 6.49 2.688 6.448 9.965 20.182 10.899 26.29 1.003 6.557-12.102 12.023-17.423 15.002-15.996 8.955-5.67 2.1-22.948 11.044-4.282 2.216-8.54 5.017-13.022 6.573-4.51 1.566-6.923-.29-8.906-3.79-1.471-2.595-7.704-17.064-9.662-21.517-.943-2.143-3.336-7.592-2.634-10.015 1.028-3.543 6.55-5.894 8.845-7.075 1.287-.661-1.563 1.043 4.507-2.196.2-.107.964-15.02 1.275-15.058.33-.038 12.154 8.182 12.622 7.948 17.649-8.82 20.132-9.162 28.199-12.844" stroke="#3E3671" stroke-width="1.816" fill="none" stroke-linecap="round" stroke-linejoin="round"/></g><g><path d="M1244.306 495.789c-.819 3.634-7.352 22.3-9.322 28.076-.948 2.781-3.363 9.848-6.203 11.566-4.153 2.51-11.747.274-15.084-.464-1.87-.413 2.483.278-6.444-1.564-.294-.06-14.214 13.383-14.558 13.167-.365-.23-4.934-17.514-5.608-17.67-25.426-5.917-28.211-7.598-39.525-10.632M1145.2 517.772c-4.325-.615-1.921-8.689-.91-11.47 1.43-3.93 3.277-10.258 5.302-16.512" stroke="#3E3671" stroke-width="1.816" fill="none" stroke-linecap="round" stroke-linejoin="round"/></g><g><path d="M1165.286 585.415c-2.96 1.388-19.225 7.01-24.236 8.785-2.411.854-8.543 3.02-11.068 2.086-3.692-1.368-5.591-7.475-6.6-10.029-.564-1.431.944 1.757-1.848-5.006-.092-.222-16.04-2.15-16.044-2.487-.004-.358 10.18-12.452 9.982-12.972-7.474-19.618-7.56-22.312-10.6-31.252M1104.14 532.746c-1.55-3.13 5.293-5.837 7.735-6.65" stroke="#3E3671" stroke-width="1.816" fill="none" stroke-linecap="round" stroke-linejoin="round"/></g><g><path d="M1283.043 316.449c-1.092 1.876-5.008-.74-6.324-1.726-3.903-2.922-13.161-8.668-15.876-11.936-2.914-3.507 3.152-10.744 5.349-14.124 6.603-10.162 2.718-2.977 10.107-13.53 1.83-2.615 3.443-5.563 5.627-7.855 2.2-2.307 4.321-1.973 6.759-.549 1.808 1.057 10.688 7.553 13.446 9.54 1.327.956 4.7 3.389 5.122 5.017.618 2.38-1.92 5.458-2.905 6.855-.552.783.586-1.09-1.976 2.674-.084.123 4.689 9.043 4.512 9.161-.188.125-10.28-1.004-10.484-.723-7.658 10.595-9.051 11.563-12.674 16.202" stroke="#3E3671" stroke-width="1.816" fill="none" stroke-linecap="round" stroke-linejoin="round"/></g><g><path d="M1334.83 371.38c-1.564 1.135-4.015-2.477-4.803-3.78-2.336-3.86-8.278-12.041-9.485-15.743-1.297-3.973 6.312-7.665 9.324-9.628 9.055-5.9 3.32-1.436 13.175-7.364 2.442-1.468 4.81-3.293 7.444-4.365 2.652-1.078 4.346-.011 5.94 2.07 1.183 1.543 6.55 10.201 8.226 12.864.807 1.282 2.857 4.542 2.667 6.04-.278 2.19-3.479 3.774-4.789 4.557-.734.439.868-.679-2.585 1.463-.113.07.938 9.19.747 9.222-.202.032-8.414-4.66-8.681-4.505-10.099 5.862-11.612 6.139-16.264 8.605" stroke="#3E3671" stroke-width="1.816" fill="none" stroke-linecap="round" stroke-linejoin="round"/></g><g><path d="M1044.433 337.936c2.83 1.1-.004 6.675-1.104 8.568-3.262 5.61-9.351 18.714-13.335 22.832-4.276 4.421-15.568-2.245-20.713-4.526-15.466-6.857-4.691-3.033-20.86-10.849-4.006-1.936-8.43-3.529-12.062-5.984-3.654-2.471-3.623-5.304-2.143-8.738 1.098-2.548 8.307-15.288 10.503-19.239 1.057-1.902 3.747-6.734 5.922-7.57 3.18-1.224 7.974 1.558 10.116 2.6 1.2.585-1.635-.575 4.117 2.116.19.089 11.604-7.706 11.804-7.495.212.223.707 13.612 1.139 13.828 16.283 8.16 17.911 9.813 25.096 13.738" stroke="#3E3671" stroke-width="1.816" fill="none" stroke-linecap="round" stroke-linejoin="round"/></g><g><path d="M1349.226 430.495c-1.471.625-2.774-2.742-3.167-3.938-1.164-3.545-4.43-11.243-4.714-14.45-.306-3.443 6.512-5.002 9.304-6.023 8.394-3.07 2.943-.54 11.986-3.483 2.241-.73 4.489-1.76 6.81-2.133 2.338-.376 3.504.8 4.402 2.772.666 1.464 3.38 9.44 4.235 11.897.412 1.183 1.457 4.191 1.026 5.362-.632 1.713-3.506 2.395-4.707 2.782-.673.217.825-.386-2.355.698-.105.035-.954 7.58-1.114 7.57-.168-.012-5.913-5.321-6.157-5.246-9.228 2.846-10.499 2.787-14.705 3.909" stroke="#3E3671" stroke-width="1.816" fill="none" stroke-linecap="round" stroke-linejoin="round"/></g><g><g clip-path="url(#M)" transform="matrix(-1 0 0 1 933 349.003)"><path fill="#3E3671" d="M0 0h108v144.003H0V0z"/></g><g clip-path="url(#N)" transform="scale(-1 1) rotate(9 -2847.506 -5525.375)"><path fill="#38A0FE" d="M0 0h48.861v26.257H0V0z"/></g><path d="M895.271 387.637c-9.298 1.008-18.222 2.085-26.729 2.68-3.828.267-10.139.061-11.91 2.276M891.786 392.722c-9.259 1.33-18.14 2.717-26.62 3.606-2.023.213-4.748.316-7.114.705M860.387 401.992c9.266-1.274 18.185-2.391 26.582-3.875" stroke="#FFF" fill="none" stroke-linecap="round" stroke-linejoin="round"/><g><path d="M862.984 419.887c.492-1.195 1.072-2.695 1.866-3.69m4.362 2.374c1.078-1.583 2.09-3.417 3.389-4.837m4.448 3.466c1.296-1.632 2.616-3.614 4.234-5.017m3.587 3.45a37.65 37.65 0 013.389-4.837m3.65 4.247c1.315-1.968 2.625-3.94 4.066-5.804m3.7 3.537c1.153-1.716 2.59-3.58 4.234-5.017" stroke="#3E3671" stroke-width="3" fill="none" stroke-linecap="round" stroke-linejoin="round"/></g></g><g><g clip-path="url(#O)" transform="rotate(-29 1196.104 -2468.394)"><path fill="#3E3671" d="M0 0h100.694v134.614H0V0z"/></g><g clip-path="url(#P)" transform="rotate(-20 1482.204 -3792.036)"><path fill="#38A0FE" d="M0 0h45.461v24.545H0V0z"/></g><path d="M1394.336 284.738c8.02-3.376 15.768-6.527 22.957-9.883 3.236-1.51 8.277-4.53 10.72-3.518M1396.293 288.382c8.134-3.094 15.987-5.972 23.288-9.075 1.742-.74 4.005-1.887 6.106-2.637M1420.733 283.9c-8.115 3.143-15.877 6.259-23.38 8.838" stroke="#FFF" fill="none" stroke-linecap="round" stroke-linejoin="round"/><g><path d="M1440.039 332.408c-5.696-.115-19.144 2.343-27.932 6.91-3.079 1.601-6.784 4.29-5.612 6.088 1.374 2.106 5.72 2.017 10.258 1.19 7.785-1.42 18.751-5.43 24.49-9.392 2.838-1.96 1.913-4.81-1.204-4.796zM1409.43 346.949c-.574.803-1.042 1.72-1.453 2.622M1413.63 347.096c-.559.838-.983 1.748-1.453 2.622M1417.904 347.245c-.51.864-.945 1.755-1.453 2.622M1423.202 345.273c-.404.89-.904 1.775-1.454 2.622M1427.55 344.4c-.5.87-.908 1.769-1.454 2.622M1432.755 341.426c-.41 1.197-.603 2.505-1.161 3.641M1437.103 339.456c-.53 1.139-.816 2.429-1.161 3.641M1443.533 334.239c-.655 2.463-1.44 4.858-2.323 7.282" stroke="#3E3671" stroke-width="2" fill="none" stroke-linecap="round" stroke-linejoin="round"/></g></g><g><g clip-path="url(#Q)" transform="translate(1310 487.005)"><path fill="#3E3671" d="M0 0h112v149.003H0V0z"/></g><g clip-path="url(#R)" transform="rotate(9 -2605.241 8798.007)"><path fill="#38A0FE" d="M0 0h50.793v27.168H0V0z"/></g><path d="M1348.553 526.442c9.666 1.05 18.943 2.171 27.785 2.793 3.979.28 10.539.071 12.382 2.365M1347.444 531.7c9.624 1.384 18.857 2.825 27.672 3.752 2.103.221 4.935.33 7.394.735M1374.166 540.134c-9.632-1.325-18.904-2.488-27.633-4.03" stroke="#FFF" fill="none" stroke-linecap="round" stroke-linejoin="round"/></g></g></svg>